<svg width="127" height="127" xmlns="http://www.w3.org/2000/svg">
 <!-- Created with Method Draw - http://github.com/duopixel/Method-Draw/ -->

 <g>
  <title>background</title>
  <rect x="-1" y="-1" width="129" height="129" id="canvas_background" fill="none"/>
 </g>
 <g>
  <title>Layer 1</title>
  <path stroke="#000" id="svg_2" d="m83.407116,81.858209c-4.074793,-1.818973 -5.701831,-6.818136 -5.701831,-6.818136s-1.835817,1.132341 -1.835817,-2.04785s1.835817,2.04785 3.671633,-10.23122c0,0 5.089892,-1.594111 4.074793,-14.776644l-1.223878,0c0,0 3.056095,-14.094027 0,-18.868329c-3.059694,-4.774302 -4.279973,-7.954492 -11.007701,-10.23122s-4.276373,-1.822988 -9.168284,-1.590095c-4.891912,0.228877 -8.970304,3.180191 -8.970304,4.770286c0,0 -3.056095,0.228877 -4.276373,1.594111c-1.223878,1.365233 -3.261274,7.725615 -3.261274,9.319726s1.018698,12.27907 2.037397,14.551782l-1.213079,0.453739c-1.018698,13.182533 4.074793,14.776644 4.074793,14.776644c1.832217,12.27907 3.668034,7.051029 3.668034,10.23122s-1.835817,2.04785 -1.835817,2.04785s-1.627038,4.999164 -5.701831,6.818136c-4.074793,1.814957 -26.694934,11.588422 -28.534351,13.636272c-1.839416,2.051866 -1.630637,11.596453 -1.630637,11.596453l96.999514,0c0,0 0.212379,-9.544588 -1.627038,-11.596453c-1.843016,-2.04785 -24.463157,-11.821315 -28.53795,-13.636272zm-44.887518,-0.690647c-0.356364,-0.722771 -0.532747,-1.244772 -0.532747,-1.244772s-1.555045,0.959679 -1.555045,-1.73465s1.555045,1.73465 3.110089,-8.669232c0,0 4.315969,-1.349172 3.452055,-12.524009l-1.036696,0c0,0 0.514749,-2.373097 0.853115,-5.356533c-0.014399,-1.236741 0.021598,-2.55379 0.133187,-3.999331l0.136786,-1.710557c-0.075592,-1.975573 -0.385162,-3.770453 -1.123088,-4.922871c-2.591741,-4.0435 -3.628438,-6.741844 -9.326669,-8.669232c-5.698231,-1.927388 -3.628438,-1.545926 -7.771624,-1.349172c-4.146786,0.192739 -7.602441,2.694328 -7.602441,4.047516c0,0 -2.591741,0.192739 -3.628438,1.349172c-0.975503,1.088171 -2.537747,5.870504 -2.724928,7.569015l0,1.128325c0.169183,2.622051 0.928707,9.833696 1.688231,11.532207l-1.029497,0.385478c-0.860314,11.174837 3.452055,12.524009 3.452055,12.524009c1.555045,10.403882 3.110089,5.974904 3.110089,8.669232s-1.555045,1.73465 -1.555045,1.73465s-1.378662,4.24427 -4.834317,5.77815c-0.219578,0.096369 -0.50035,0.224862 -0.835117,0.369416l0,21.016564l2.069793,0c-0.10439,-5.131671 0.277172,-11.753053 2.685332,-14.43132c1.281472,-1.425464 5.482253,-3.770453 22.864917,-11.492053zm80.379974,-36.363393c-0.143986,-1.517818 -0.457154,-2.871006 -1.051095,-3.798561c-2.588142,-4.047516 -3.628438,-6.741844 -9.323069,-8.669232c-5.701831,-1.927388 -3.628438,-1.545926 -7.775224,-1.349172c-4.143186,0.192739 -7.598841,2.694328 -7.598841,4.047516c0,0 -2.588142,0.192739 -3.628438,1.349172c-0.975503,1.092187 -2.552145,5.910658 -2.728528,7.593107l0.118788,0l0.287971,3.666053c0.071993,0.927556 0.079192,1.750711 0.09719,2.589928c0.323968,2.674251 0.755925,5.42078 1.187881,6.380458l-1.029497,0.385478c-0.860314,11.174837 3.455655,12.524009 3.455655,12.524009c1.555045,10.403882 3.10649,5.974904 3.10649,8.669232s-1.555045,1.73465 -1.555045,1.73465s-0.190781,0.570186 -0.586741,1.357203c17.170285,7.629246 21.33507,9.958173 22.602143,11.379622c2.411759,2.678267 2.789721,9.295633 2.685332,14.43132l1.727827,0l0,-21.305672c-0.057594,-0.024092 -0.136786,-0.060231 -0.187181,-0.084323c-3.452055,-1.537895 -4.834317,-5.77815 -4.834317,-5.77815s-1.558644,0.959679 -1.558644,-1.73465s1.558644,1.73465 3.110089,-8.669232c0,0 2.894111,-0.919525 3.466454,-7.392337l0,-4.926886c-0.0036,-0.072277 -0.0036,-0.132508 -0.010799,-0.204785l-1.040296,0c0,0 0.773923,-3.573699 1.051095,-7.472645l0,-4.722101l0.010799,0z" fill-opacity="null" stroke-opacity="null" stroke-width="NaN" fill="#000000"/>
 </g>
</svg>