<svg width="127" height="127" xmlns="http://www.w3.org/2000/svg">
 <!-- Created with Method Draw - http://github.com/duopixel/Method-Draw/ -->
 <defs>
  <filter id="svg_2_blur" x="-50%" y="-50%" width="200%" height="200%">
   <feGaussianBlur stdDeviation="0"/>
  </filter>
 </defs>
 <g>
  <title>background</title>
  <rect x="-1" y="-1" width="129" height="129" id="canvas_background" fill="none"/>
 </g>
 <g>
  <title>Layer 1</title>
  <path fill="#000000" stroke-width="NaN" stroke-opacity="null" fill-opacity="null" d="m91.792916,24.694603c-7.208818,-6.906341 -14.983926,-12.438753 -21.361912,-13.192987c-0.347214,-0.048923 -0.706828,-0.077462 -1.08711,-0.085616l-41.97566,0c-0.669626,0 -1.330986,0.256847 -1.802205,0.73385c-0.467085,0.464771 -0.744029,1.117082 -0.744029,1.781624l0,104.981281c0,0.660465 0.26041,1.292391 0.744029,1.77347c0.483619,0.472925 1.120178,0.729773 1.802205,0.729773l75.907536,0c0.669626,0 1.310318,-0.25277 1.793938,-0.729773c0.483619,-0.477002 0.752296,-1.108928 0.752296,-1.77347l0,-69.858417c-0.148806,-8.10904 -6.588794,-16.951929 -14.029088,-24.359734l0,-0.000001zm-3.583742,3.555094c3.327465,3.204477 6.320117,6.832956 8.552205,10.330973c-1.934477,-0.754234 -3.964023,-1.312776 -5.869565,-1.757162c-4.195499,-0.929543 -8.300062,-1.304622 -10.850429,-1.455469c0.0124,-0.542233 0.016534,-1.153775 0.016534,-1.818317c0,-3.542863 -0.227342,-8.594196 -1.471525,-13.046217c-0.0124,-0.040769 -0.020667,-0.081539 -0.037201,-0.122308c3.157992,2.054779 6.597061,4.782254 9.659982,7.8685l-0.000001,0zm12.512095,88.13943l-70.815068,0l0,-99.958487l39.441827,0l0,0.008154c1.719535,-0.101924 3.20346,1.5737 4.340172,5.406026c1.033374,3.648864 1.293785,8.406656 1.289651,11.704903c0.008267,2.417627 -0.111604,4.04025 -0.111604,4.04025l-0.202541,2.658167l2.711574,0.028539c0.0124,0 6.266381,0.073385 12.40049,1.447315c5.894366,1.255698 10.503215,3.758941 10.933099,6.592417c0.016534,0.25277 0.020667,0.505541 0.016534,0.742004l0,67.330713l-0.004133,0l-0.000001,-0.000001z" id="svg_2" filter="url(#svg_2_blur)" stroke="#000"/>
  <path stroke="#000" id="svg_1" d="m79.436292,42.951086c-0.128057,-0.221698 -0.286935,-0.438989 -0.489508,-0.605687c-0.866764,-0.726888 -2.089927,-0.505176 -2.725381,0.49806c-0.634373,1.005621 -0.433858,2.411186 0.434899,3.140119c0.789365,0.658292 1.842738,0.500455 2.514878,-0.273999l-18.443142,29.261192l-5.733711,23.952617l18.002355,-13.709683l40.997642,-65.045317l-12.273594,-10.244992l-3.956474,6.277843c-0.226338,-1.044327 -0.731722,-2.024825 -1.550802,-2.715046c-1.900373,-1.585842 -4.557176,-1.106116 -5.934251,1.085407c-7.891166,12.528522 -3.516645,15.864874 -10.842914,28.379486l0.000003,0zm-9.028979,39.163619l-9.260284,7.052592l2.948765,-12.331597l6.311521,5.279005l-0.000003,0zm10.908469,-39.801199c5.68104,-9.660043 5.139914,-12.279352 10.001899,-20.853627c0.804268,0.635221 1.727595,0.859298 2.634031,0.804298l-12.63593,20.049333l0,-0.000003z" fill-opacity="null" stroke-opacity="null" stroke-width="NaN" fill="#000000"/>
 </g>
</svg>