<svg width="127" height="127" xmlns="http://www.w3.org/2000/svg">
 <!-- Created with Method Draw - http://github.com/duopixel/Method-Draw/ -->

 <g>
  <title>background</title>
  <rect fill="none" id="canvas_background" height="129" width="129" y="-1" x="-1"/>
 </g>
 <g>
  <title>Layer 1</title>
  <path stroke="#000" id="svg_3" d="m19.193046,90.279891l88.571057,0.033814l-2.874151,4.247556l-82.78882,-0.101437l-2.908089,-4.179932l0.000004,0zm0.60867,-56.502125l87.387529,-0.101437l2.536084,4.357343l-92.493551,0.033814l2.569938,-4.28972zm-8.624082,28.312453l104.568019,-0.101437l-0.135166,4.357347l-104.365224,-0.067624l-0.067629,-4.188286zm104.65458,0.404141c0,28.846659 -23.47318,52.31371 -52.330359,52.31371c-28.844712,0 -52.313517,-23.471292 -52.313517,-52.31371c0,-28.842558 23.473047,-52.309605 52.313517,-52.309605c28.857183,-0.004238 52.330359,23.467047 52.330359,52.309605zm-52.32625,-56.502129c-31.147257,0 -56.493634,25.344481 -56.493634,56.49788c0,31.157644 25.34638,56.502122 56.493634,56.502122c31.164217,0 56.506363,-25.344478 56.506363,-56.502122c0,-31.153399 -25.342143,-56.49788 -56.506363,-56.49788zm15.853699,56.502129c0,30.825057 -8.352019,52.31371 -15.853699,52.31371c-7.493193,0 -15.845079,-21.488653 -15.845079,-52.31371c0,-30.833544 8.34777,-52.309605 15.845079,-52.309605c7.497446,-0.004238 15.853699,21.476062 15.853699,52.309605zm-15.853699,-56.502129c-13.011956,0 -20.033679,29.111805 -20.033679,56.49788c0,27.394437 7.021723,56.502122 20.033679,56.502122c13.012089,0 20.046537,-29.111919 20.046537,-56.502122c-0.004242,-27.386075 -7.034448,-56.49788 -20.046537,-56.49788zm37.129288,56.502129c0,28.846659 -16.66189,52.31371 -37.129288,52.31371c-20.463145,0 -37.116559,-23.471292 -37.116559,-52.31371c0,-28.842558 16.653414,-52.309605 37.116559,-52.309605c20.467398,-0.004238 37.129288,23.467047 37.129288,52.309605zm-37.129288,-56.502129c-22.770065,0 -41.305155,25.344481 -41.305155,56.49788c0,31.157644 18.53509,56.502122 41.305155,56.502122c22.778548,0 41.309526,-25.344478 41.309526,-56.502122c0,-31.153399 -18.530978,-56.49788 -41.309526,-56.49788z" fill-opacity="null" stroke-opacity="null" stroke-width="NaN" fill="#000000"/>
 </g>
</svg>