<svg width="128" height="128" xmlns="http://www.w3.org/2000/svg">
 <!-- Created with Method Draw - http://github.com/duopixel/Method-Draw/ -->

 <g>
  <title>background</title>
  <rect x="-1" y="-1" width="130" height="130" id="canvas_background" fill="#ffffff"/>
 </g>
 <g>
  <title>Layer 1</title>
  <path stroke="#000000" id="svg_58" d="m55.840212,60.857725c-16.332443,-12.415869 -22.171942,-20.269925 -22.219268,-29.88471c-0.043157,-8.765055 7.165401,-17.224623 14.635804,-17.175839c3.730385,0.02441 11.7323,3.25043 14.565805,5.872375c1.427687,1.321087 2.103908,1.190815 5.282501,-1.017663c8.650787,-6.010533 17.098368,-6.136692 22.569393,-0.337031c8.74386,9.269076 7.151944,20.338045 -4.576218,31.819556c-6.235365,6.104238 -19.852035,16.933498 -21.292105,16.933498c-0.438194,0 -4.472851,-2.79459 -8.965911,-6.210189l0,0.000002z" fill-opacity="null" stroke-opacity="null" stroke-width="0" fill="#000000"/>
  <path id="svg_59" d="m57.140952,113.079155c-3.688872,-1.618445 -1.160179,-6.779966 -3.609687,-9.378197c-3.251734,-2.184916 -0.532652,-6.810584 -3.155096,-9.381787c-1.878279,-1.874073 -1.314901,-4.685299 -0.922871,-7.099398c-7.46269,-0.06637 -14.933244,0.17577 -22.389059,-0.22114c-3.791475,0.360899 -5.024746,-5.148976 -3.2124,-8.131287c1.756918,-3.168303 5.487736,-2.342795 8.309289,-2.650075c16.299332,-0.21663 32.602992,-0.172298 48.902597,0.008232c4.329942,0.225658 9.285266,-0.336763 12.706611,3.294039c4.075639,4.274585 4.017575,11.088667 4.025582,16.895417c-0.106022,5.416483 -0.727704,11.843232 -5.138747,15.069627c-4.106006,3.086596 -9.265314,2.161419 -13.9354,2.430277c-7.009082,-0.08459 -14.064657,0.294395 -21.037527,-0.639007l-0.543295,-0.196699l0,0l0.000003,-0.000003zm17.391175,-2.975663c2.415823,-3.165378 -0.883226,-5.778276 -3.675766,-4.94894c-4.049715,-0.029691 -8.191004,-0.479713 -12.172155,0.494571c-3.430042,1.464388 -1.218025,6.072188 1.872452,5.145977c4.527309,0.288721 9.149582,0.513344 13.617043,-0.475483l0.358425,-0.216129l0,0.000003zm16.538262,-0.613433c3.928999,-2.451592 3.958388,-8.062051 4.076319,-12.470903c-0.085774,-4.652138 0.428028,-9.747109 -1.767358,-13.913057c-1.815562,-3.055546 -5.1972,-4.093827 -8.312038,-3.979591c-5.861201,0.010625 -11.809287,-0.514979 -17.600073,0.711669c-3.929298,0.947744 -5.576515,5.898913 -5.88415,9.917848c-0.121258,3.889457 -0.456837,7.893778 0.307289,11.71321c1.817677,1.417587 3.987071,-2.575549 4.809048,-4.346671c1.083034,-3.290646 -0.155507,-7.398364 2.03418,-10.200661c2.187984,-2.667363 6.26193,-2.405241 8.158565,0.531886c2.102325,2.602033 -0.121218,6.114689 0.457296,9.164072c1.041508,2.798825 -0.175639,5.484411 -0.215197,8.034211c1.038056,1.936404 0.722093,4.235805 0.404208,6.34299c4.066243,-0.162687 8.242877,0.480612 12.203364,-0.766233c0.463662,-0.195036 0.906532,-0.44879 1.328545,-0.738771l0.000003,0zm-31.740418,-10.130225c0.548761,-3.860752 -4.679369,-3.550154 -5.140448,-0.442502c-1.100186,3.447639 4.417569,4.38792 5.212538,1.981912c0.009279,-0.514793 -0.03525,-1.027224 -0.072091,-1.53941zm15.665037,0.119073c0.355149,-3.324793 -5.157033,-3.357917 -6.208579,-1.023419c-0.587907,1.418241 -2.518318,4.299207 0.284272,3.549069c1.893013,-0.480127 6.301693,1.05746 5.924307,-2.525653l0,0.000003zm-15.662998,-8.76847c-0.189009,-0.829175 0.760564,-2.899345 -0.284029,-2.795993c-2.310137,0.286044 -4.786282,-0.12766 -6.950637,0.898949c-1.949442,2.997922 1.315388,5.926276 3.993796,4.943216c1.954396,0.032341 3.489709,-0.35075 3.240872,-3.046173l-0.000003,0zm15.302159,2.122568c2.221955,-2.688373 -1.243425,-6.188919 -3.748767,-4.415918c-2.608045,1.523684 -1.829067,7.07595 1.652108,5.404776c0.744879,-0.153584 1.539745,-0.366547 2.096659,-0.988861l0,0.000003zm-13.340592,-10.819796c0.502527,-0.988725 1.005061,-1.977456 1.507585,-2.96619c-11.285271,0.067813 -22.576008,-0.173746 -33.856682,0.205802c-3.063856,-0.93731 -5.537926,4.290053 -1.711304,5.174005c6.02548,0.875571 12.138204,0.429504 18.201686,0.557598c4.783708,-0.001711 9.567418,-0.003345 14.351126,-0.005053c0.502529,-0.988723 1.005061,-1.977456 1.507585,-2.966188l0.000003,0.000025z" fill-opacity="null" stroke-opacity="null" stroke-width="0" stroke="#000000" fill="#000000"/>
 </g>
</svg>